<?xml version="1.0" encoding="UTF-8" standalone="no"?>
<!-- Created with Inkscape (http://www.inkscape.org/) -->

<svg
   xmlns:dc="http://purl.org/dc/elements/1.1/"
   xmlns:cc="http://creativecommons.org/ns#"
   xmlns:rdf="http://www.w3.org/1999/02/22-rdf-syntax-ns#"
   xmlns:svg="http://www.w3.org/2000/svg"
   xmlns="http://www.w3.org/2000/svg"
   xmlns:sodipodi="http://sodipodi.sourceforge.net/DTD/sodipodi-0.dtd"
   xmlns:inkscape="http://www.inkscape.org/namespaces/inkscape"
   width="370"
   height="85"
   viewBox="0 0 97.895835 22.489584"
   version="1.1"
   id="svg8"
   sodipodi:docname="logo.svg"
   inkscape:version="0.92.3 (2405546, 2018-03-11)">
  <defs
     id="defs2" />
  <sodipodi:namedview
     id="base"
     pagecolor="#ffffff"
     bordercolor="#666666"
     borderopacity="1.0"
     inkscape:pageopacity="0.0"
     inkscape:pageshadow="2"
     inkscape:zoom="1.979899"
     inkscape:cx="179.71232"
     inkscape:cy="-91.345522"
     inkscape:document-units="mm"
     inkscape:current-layer="text21"
     showgrid="false"
     inkscape:window-width="1858"
     inkscape:window-height="1057"
     inkscape:window-x="-8"
     inkscape:window-y="-8"
     inkscape:window-maximized="1"
     fit-margin-top="0"
     fit-margin-left="0"
     fit-margin-right="0"
     fit-margin-bottom="0"
     units="px" />
  <metadata
     id="metadata5">
    <rdf:RDF>
      <cc:Work
         rdf:about="">
        <dc:format>image/svg+xml</dc:format>
        <dc:type
           rdf:resource="http://purl.org/dc/dcmitype/StillImage" />
        <dc:title></dc:title>
      </cc:Work>
    </rdf:RDF>
  </metadata>
  <g
     inkscape:label="Layer 1"
     inkscape:groupmode="layer"
     id="layer1"
     transform="translate(-45.661885,-34.758345)">
    <g
       aria-label="Honey Waffle"
       style="font-style:normal;font-variant:normal;font-weight:bold;font-stretch:normal;font-size:25.39999962px;line-height:1.25;font-family:BenchNine;-inkscape-font-specification:'BenchNine, Bold';font-variant-ligatures:normal;font-variant-caps:normal;font-variant-numeric:normal;font-feature-settings:normal;text-align:start;letter-spacing:0px;word-spacing:0px;writing-mode:lr-tb;text-anchor:start;fill:#000000;fill-opacity:1;stroke:none;stroke-width:0.26458332"
       id="text21">
      <path
         d="m 46.652521,53.426769 q -0.173633,0 -0.248047,-0.09922 -0.07441,-0.111622 -0.07441,-0.483692 v -16.66875 q 0,-0.37207 0.07441,-0.471289 0.07441,-0.111621 0.248047,-0.111621 h 1.79834 q 0.173632,0 0.248046,0.111621 0.07441,0.09922 0.07441,0.471289 v 6.598047 q 0,0.111621 0.03721,0.198438 0.04961,0.08682 0.08682,0.08682 h 3.720703 q 0.03721,0 0.08682,-0.08682 0.04961,-0.09922 0.04961,-0.21084 v -6.585645 q 0,-0.359668 0.07441,-0.471289 0.08682,-0.111621 0.248047,-0.111621 h 1.823144 q 0.161231,0 0.235645,0.111621 0.07441,0.09922 0.07441,0.471289 v 16.66875 q 0,0.37207 -0.07441,0.483692 -0.07441,0.09922 -0.235645,0.09922 h -1.823144 q -0.111621,0 -0.173633,-0.0248 -0.06201,-0.03721 -0.111621,-0.173633 -0.04961,-0.136426 -0.04961,-0.384473 v -7.577832 q 0,-0.260449 -0.136425,-0.260449 H 48.92215 q -0.124024,0 -0.124024,0.260449 v 7.577832 q 0,0.359668 -0.08682,0.471289 -0.07441,0.111621 -0.235645,0.111621 z"
         style="font-style:normal;font-variant:normal;font-weight:bold;font-stretch:normal;font-size:25.39999962px;font-family:BenchNine;-inkscape-font-specification:'BenchNine, Bold';font-variant-ligatures:normal;font-variant-caps:normal;font-variant-numeric:normal;font-feature-settings:normal;text-align:start;writing-mode:lr-tb;text-anchor:start;stroke-width:0.26458332;fill:#481fb2;fill-opacity:1"
         id="path23" />
      <path
         d="m 60.753985,51.715246 q 0.272852,0.16123 0.669727,0.16123 0.396875,0 0.657324,-0.16123 0.260449,-0.173633 0.483691,-0.644922 0.223242,-0.483691 0.334864,-1.451074 0.111621,-0.979785 0.111621,-2.468067 0,-1.451074 -0.111621,-2.406054 -0.111622,-0.954981 -0.347266,-1.42627 -0.223242,-0.483691 -0.483691,-0.657324 -0.26045,-0.173633 -0.644922,-0.173633 -0.384473,0 -0.657325,0.173633 -0.260449,0.173633 -0.496093,0.657324 -0.223242,0.471289 -0.334864,1.42627 -0.111621,0.942578 -0.111621,2.406054 0,1.488282 0.09922,2.455664 0.111621,0.967383 0.334863,1.451075 0.235645,0.483691 0.496094,0.657324 z m 1.389063,1.810742 q -0.310059,0.03721 -0.719336,0.03721 -0.409278,0 -0.731739,-0.03721 -0.310058,-0.03721 -0.719335,-0.186035 -0.409278,-0.148828 -0.719336,-0.409277 -0.297657,-0.26045 -0.620118,-0.744141 -0.322461,-0.483691 -0.520898,-1.141016 -0.198438,-0.657324 -0.334863,-1.649511 -0.124024,-1.00459 -0.124024,-2.244825 0,-1.240234 0.124024,-2.220019 0.136425,-0.992188 0.347265,-1.649512 0.21084,-0.657324 0.533301,-1.128613 0.322461,-0.483691 0.620117,-0.731738 0.310059,-0.26045 0.719336,-0.396875 0.42168,-0.148828 0.719336,-0.186035 0.310059,-0.03721 0.706934,-0.03721 0.396875,0 0.694531,0.03721 0.310059,0.03721 0.719336,0.186035 0.409277,0.136425 0.706933,0.396875 0.310059,0.248047 0.63252,0.731738 0.322461,0.471289 0.520898,1.128613 0.21084,0.657324 0.334864,1.649512 0.136425,0.979785 0.136425,2.220019 0,1.240235 -0.136425,2.244825 -0.124024,0.992187 -0.322461,1.649511 -0.198438,0.657325 -0.520899,1.141016 -0.310058,0.483691 -0.620117,0.744141 -0.297656,0.260449 -0.706933,0.409277 -0.409278,0.148828 -0.719336,0.186035 z"
         style="font-style:normal;font-variant:normal;font-weight:bold;font-stretch:normal;font-size:25.39999962px;font-family:BenchNine;-inkscape-font-specification:'BenchNine, Bold';font-variant-ligatures:normal;font-variant-caps:normal;font-variant-numeric:normal;font-feature-settings:normal;text-align:start;writing-mode:lr-tb;text-anchor:start;stroke-width:0.26458332;fill:#481fb2;fill-opacity:1"
         id="path25" />
      <path
         d="m 67.773711,53.426769 q -0.148828,0 -0.235644,-0.111621 -0.07441,-0.124023 -0.07441,-0.496094 V 41.694152 q 0,-0.74414 0.297656,-0.74414 h 0.533301 q 0.173633,0 0.285254,0.111621 0.111621,0.111621 0.173633,0.471289 l 0.248046,1.562695 q 0.02481,0.136426 0.08682,0.136426 0.04961,0 0.07441,-0.124024 0.21084,-0.719336 0.533301,-1.203027 0.334863,-0.483691 0.731738,-0.706933 0.396875,-0.235645 0.744141,-0.310059 0.359667,-0.08682 0.793749,-0.08682 0.682129,0 1.178223,0.248046 0.496094,0.248047 0.880567,0.84336 0.396875,0.58291 0.595312,1.661914 0.198438,1.066601 0.198438,2.616894 v 6.647656 q 0,0.372071 -0.07442,0.496094 -0.07441,0.111621 -0.235644,0.111621 h -1.5875 q -0.161231,0 -0.235645,-0.111621 -0.07441,-0.124023 -0.07441,-0.496094 v -6.920507 q 0,-1.748731 -0.272851,-2.579688 -0.260449,-0.830957 -0.868164,-0.830957 -0.768946,0 -1.277442,1.00459 -0.508496,0.992188 -0.508496,2.492871 v 6.833691 q 0,0.372071 -0.08682,0.496094 -0.07441,0.111621 -0.223242,0.111621 z"
         style="font-style:normal;font-variant:normal;font-weight:bold;font-stretch:normal;font-size:25.39999962px;font-family:BenchNine;-inkscape-font-specification:'BenchNine, Bold';font-variant-ligatures:normal;font-variant-caps:normal;font-variant-numeric:normal;font-feature-settings:normal;text-align:start;writing-mode:lr-tb;text-anchor:start;stroke-width:0.26458332;fill:#481fb2;fill-opacity:1"
         id="path27" />
      <path
         d="m 83.673516,50.425402 q 0,1.37666 -0.744141,2.257227 -0.744141,0.880566 -2.207617,0.880566 -0.58291,0 -1.066602,-0.136426 -0.483691,-0.124023 -1.00459,-0.533301 -0.520898,-0.409277 -0.880566,-1.079003 -0.359668,-0.682129 -0.595312,-1.860352 -0.223243,-1.190625 -0.223243,-2.778125 0,-1.599902 0.223243,-2.778125 0.223242,-1.190625 0.570507,-1.860351 0.347266,-0.682129 0.84336,-1.079004 0.508496,-0.409278 0.967383,-0.533301 0.458886,-0.124023 1.016992,-0.124023 3.199804,0 3.199804,5.977929 0,0.868164 -0.310058,0.868164 H 79.14666 q -0.09922,0 -0.09922,0.310059 0.0124,1.885156 0.446485,2.902148 0.446484,1.016992 1.289844,1.016992 0.409277,0 0.682128,-0.186035 0.285254,-0.186035 0.42168,-0.545703 0.136426,-0.359668 0.186035,-0.620117 0.06201,-0.272852 0.09922,-0.669727 0.03721,-0.272851 0.21084,-0.272851 h 1.00459 q 0.285254,0 0.285254,0.644922 z m -4.564063,-4.092773 h 2.840137 q 0.02481,0 0.02481,-0.310059 -0.09922,-3.54707 -1.413868,-3.54707 -0.607714,0 -1.016992,0.781348 -0.409277,0.781347 -0.483691,2.455664 0,0.620117 0.04961,0.620117 z"
         style="font-style:normal;font-variant:normal;font-weight:bold;font-stretch:normal;font-size:25.39999962px;font-family:BenchNine;-inkscape-font-specification:'BenchNine, Bold';font-variant-ligatures:normal;font-variant-caps:normal;font-variant-numeric:normal;font-feature-settings:normal;text-align:start;writing-mode:lr-tb;text-anchor:start;stroke-width:0.26458332;fill:#481fb2;fill-opacity:1"
         id="path29" />
      <path
         d="m 87.24539,54.939855 q 0.285254,0 0.496094,-0.471289 0.21084,-0.458887 0.21084,-1.314648 0,-0.198438 -0.248047,-1.37666 l -2.430859,-10.10791 q -0.02481,-0.173633 -0.02481,-0.272852 0,-0.446484 0.186035,-0.446484 h 1.500684 q 0.173632,0 0.285254,0.124023 0.111621,0.111621 0.173632,0.471289 l 1.612305,8.532812 q 0.04961,0.148829 0.06201,0.148829 0.04961,0 0.04961,-0.136426 l 1.265039,-8.508008 q 0.04961,-0.37207 0.148828,-0.496094 0.111621,-0.136425 0.272852,-0.136425 h 1.041797 q 0.21084,0 0.21084,0.483691 0,0.111621 -0.02481,0.285254 l -2.207617,11.496972 q -0.260449,1.42627 -0.570508,2.182813 -0.310059,0.756543 -0.694531,1.029394 -0.384473,0.272852 -1.016992,0.285254 h -0.124024 q -1.00459,0 -1.364258,-0.5333 -0.09922,-0.111622 -0.09922,-0.570508 0,-0.917774 0.297656,-0.917774 0.0248,0 0.446484,0.124024 0.42168,0.124023 0.545703,0.124023 z"
         style="font-style:normal;font-variant:normal;font-weight:bold;font-stretch:normal;font-size:25.39999962px;font-family:BenchNine;-inkscape-font-specification:'BenchNine, Bold';font-variant-ligatures:normal;font-variant-caps:normal;font-variant-numeric:normal;font-feature-settings:normal;text-align:start;writing-mode:lr-tb;text-anchor:start;stroke-width:0.26458332;fill:#481fb2;fill-opacity:1"
         id="path31" />
      <path
         d="m 99.362482,53.426769 q -0.322461,-0.0248 -0.446485,-0.855761 L 96.671173,36.447961 q -0.02481,-0.124024 -0.02481,-0.347266 0,-0.508496 0.198438,-0.508496 h 1.624707 q 0.148828,0 0.272851,0.235645 0.124024,0.235644 0.173633,0.632519 l 1.376663,11.769824 1.67431,-11.732617 q 0.0496,-0.384472 0.17364,-0.58291 0.13642,-0.21084 0.28525,-0.21084 h 1.33945 q 0.32246,0.03721 0.43409,0.79375 l 1.77353,11.980664 1.38906,-12.030273 q 0.0496,-0.384473 0.16123,-0.620117 0.12403,-0.235645 0.27286,-0.235645 h 1.40146 q 0.19844,0 0.19844,0.508496 0,0.161231 -0.0372,0.347266 l -2.19521,16.123047 q -0.12403,0.830957 -0.42168,0.855761 h -1.51309 q -0.32246,-0.0248 -0.44648,-0.868164 l -1.86036,-11.571386 -1.79834,11.583789 q -0.0992,0.79375 -0.39687,0.855761 z"
         style="font-style:normal;font-variant:normal;font-weight:bold;font-stretch:normal;font-size:25.39999962px;font-family:BenchNine;-inkscape-font-specification:'BenchNine, Bold';font-variant-ligatures:normal;font-variant-caps:normal;font-variant-numeric:normal;font-feature-settings:normal;text-align:start;writing-mode:lr-tb;text-anchor:start;stroke-width:0.26458332;fill:#481fb2;fill-opacity:1"
         id="path33" />
      <path
         d="m 113.27791,53.575597 q -1.22783,0 -1.90996,-0.79375 -0.66972,-0.79375 -0.66972,-2.306836 0,-1.128613 0.33486,-1.971972 0.34726,-0.84336 0.85576,-1.277442 0.5209,-0.434082 1.14102,-0.719335 0.62011,-0.285254 1.15341,-0.372071 0.5333,-0.08682 0.93018,-0.16123 0.40928,-0.08682 0.47129,-0.173633 v -0.657324 q 0,-1.327051 -0.29766,-1.984375 -0.28525,-0.669727 -1.0542,-0.669727 -0.64492,0 -0.99218,0.409278 -0.33487,0.396875 -0.57051,1.227832 -0.11162,0.347265 -0.29766,0.322461 -1.30224,-0.322461 -1.31465,-0.42168 -0.0744,-0.03721 -0.0868,-0.285254 0,-0.248047 0.062,-0.458887 0.32246,-1.215429 1.10381,-1.835547 0.78134,-0.632519 2.23242,-0.632519 0.78135,0 1.35185,0.260449 0.58291,0.248047 1.017,0.830957 0.43408,0.58291 0.64492,1.5875 0.22324,0.992188 0.22324,2.430859 v 6.883301 q 0,0.63252 -0.26045,0.63252 h -0.39687 q -0.22325,0 -0.39688,-0.545704 -0.0248,-0.124023 -0.24805,-0.806152 -0.21084,-0.682129 -0.23564,-0.818555 -0.0124,-0.03721 -0.0372,-0.04961 -0.0124,-0.0124 -0.0372,0 -0.0248,0.0124 -0.0248,0.04961 -0.33486,1.141016 -0.96738,1.723926 -0.62012,0.58291 -1.72393,0.58291 z m 0.43408,-1.5875 q 0.86817,0 1.38907,-1.141015 0.5333,-1.141016 0.5333,-2.728516 0,-0.942578 -0.11162,-0.942578 -0.22325,0 -0.37207,0.07441 -1.33946,0.334863 -1.97198,1.091406 -0.62011,0.756543 -0.62011,1.971973 0,1.674316 1.15341,1.674316 z"
         style="font-style:normal;font-variant:normal;font-weight:bold;font-stretch:normal;font-size:25.39999962px;font-family:BenchNine;-inkscape-font-specification:'BenchNine, Bold';font-variant-ligatures:normal;font-variant-caps:normal;font-variant-numeric:normal;font-feature-settings:normal;text-align:start;writing-mode:lr-tb;text-anchor:start;stroke-width:0.26458332;fill:#481fb2;fill-opacity:1"
         id="path35" />
      <path
         d="m 120.59529,53.426769 q -0.32246,0 -0.32246,-0.756543 v -9.47539 q 0,-0.396875 -0.0868,-0.396875 h -0.64493 q -0.14882,0 -0.22324,-0.09922 -0.062,-0.09922 -0.062,-0.409277 v -0.756543 q 0,-0.58291 0.28525,-0.58291 h 0.64493 q 0.0868,0 0.0868,-0.434082 0,-1.599903 0.17363,-2.6417 0.18604,-1.054199 0.57051,-1.599902 0.38447,-0.545703 0.84336,-0.744141 0.47129,-0.198437 1.15342,-0.198437 0.85576,0 1.20303,0.07441 0.28525,0.04961 0.28525,0.446484 v 0.806153 q 0,0.347265 -0.0248,0.458886 -0.0248,0.09922 -0.13643,0.09922 h -0.78135 q -0.65732,0 -0.93017,0.558106 -0.27285,0.545703 -0.27285,2.009179 v 1.091407 q 0,0.07441 0.0372,0.07441 h 1.74873 q 0.27285,0 0.27285,0.520898 v 0.818555 q 0,0.297656 -0.0744,0.409277 -0.062,0.09922 -0.19844,0.09922 h -1.68672 q -0.0992,0 -0.0992,0.396875 v 9.47539 q 0,0.756543 -0.32247,0.756543 z"
         style="font-style:normal;font-variant:normal;font-weight:bold;font-stretch:normal;font-size:25.39999962px;font-family:BenchNine;-inkscape-font-specification:'BenchNine, Bold';font-variant-ligatures:normal;font-variant-caps:normal;font-variant-numeric:normal;font-feature-settings:normal;text-align:start;writing-mode:lr-tb;text-anchor:start;stroke-width:0.26458332;fill:#481fb2;fill-opacity:1"
         id="path37" />
      <path
         d="m 126.59802,53.426769 q -0.32246,0 -0.32246,-0.756543 v -9.47539 q 0,-0.396875 -0.0868,-0.396875 h -0.64493 q -0.14882,0 -0.22324,-0.09922 -0.062,-0.09922 -0.062,-0.409277 v -0.756543 q 0,-0.58291 0.28525,-0.58291 h 0.64493 q 0.0868,0 0.0868,-0.434082 0,-1.599903 0.17364,-2.6417 0.18603,-1.054199 0.5705,-1.599902 0.38448,-0.545703 0.84336,-0.744141 0.47129,-0.198437 1.15342,-0.198437 0.85576,0 1.20303,0.07441 0.28525,0.04961 0.28525,0.446484 v 0.806153 q 0,0.347265 -0.0248,0.458886 -0.0248,0.09922 -0.13643,0.09922 h -0.78135 q -0.65732,0 -0.93017,0.558106 -0.27285,0.545703 -0.27285,2.009179 v 1.091407 q 0,0.07441 0.0372,0.07441 h 1.74873 q 0.27286,0 0.27286,0.520898 v 0.818555 q 0,0.297656 -0.0744,0.409277 -0.062,0.09922 -0.19844,0.09922 h -1.68671 q -0.0992,0 -0.0992,0.396875 v 9.47539 q 0,0.756543 -0.32246,0.756543 z"
         style="font-style:normal;font-variant:normal;font-weight:bold;font-stretch:normal;font-size:25.39999962px;font-family:BenchNine;-inkscape-font-specification:'BenchNine, Bold';font-variant-ligatures:normal;font-variant-caps:normal;font-variant-numeric:normal;font-feature-settings:normal;text-align:start;writing-mode:lr-tb;text-anchor:start;stroke-width:0.26458332;fill:#481fb2;fill-opacity:1"
         id="path39" />
      <path
         d="m 132.38992,53.426769 q -0.31006,0 -0.31006,-0.669726 V 36.038684 q 0,-0.744141 0.31006,-0.744141 h 1.38907 q 0.31005,0 0.31005,0.744141 v 16.718359 q 0,0.669726 -0.31005,0.669726 z"
         style="font-style:normal;font-variant:normal;font-weight:bold;font-stretch:normal;font-size:25.39999962px;font-family:BenchNine;-inkscape-font-specification:'BenchNine, Bold';font-variant-ligatures:normal;font-variant-caps:normal;font-variant-numeric:normal;font-feature-settings:normal;text-align:start;writing-mode:lr-tb;text-anchor:start;stroke-width:0.26458332;fill:#481fb2;fill-opacity:1"
         id="path41" />
      <path
         d="m 142.95672,50.425402 q 0,1.37666 -0.74414,2.257227 -0.74414,0.880566 -2.20762,0.880566 -0.58291,0 -1.0666,-0.136426 -0.48369,-0.124023 -1.00459,-0.533301 -0.5209,-0.409277 -0.88057,-1.079003 -0.35967,-0.682129 -0.59531,-1.860352 -0.22324,-1.190625 -0.22324,-2.778125 0,-1.599902 0.22324,-2.778125 0.22324,-1.190625 0.57051,-1.860351 0.34726,-0.682129 0.84336,-1.079004 0.50849,-0.409278 0.96738,-0.533301 0.45889,-0.124023 1.01699,-0.124023 3.19981,0 3.19981,5.977929 0,0.868164 -0.31006,0.868164 h -4.31602 q -0.0992,0 -0.0992,0.310059 0.0124,1.885156 0.44649,2.902148 0.44648,1.016992 1.28984,1.016992 0.40928,0 0.68213,-0.186035 0.28525,-0.186035 0.42168,-0.545703 0.13643,-0.359668 0.18603,-0.620117 0.062,-0.272852 0.0992,-0.669727 0.0372,-0.272851 0.21084,-0.272851 h 1.00459 q 0.28526,0 0.28526,0.644922 z m -4.56407,-4.092773 h 2.84014 q 0.0248,0 0.0248,-0.310059 -0.0992,-3.54707 -1.41387,-3.54707 -0.60772,0 -1.01699,0.781348 -0.40928,0.781347 -0.4837,2.455664 0,0.620117 0.0496,0.620117 z"
         style="font-style:normal;font-variant:normal;font-weight:bold;font-stretch:normal;font-size:25.39999962px;font-family:BenchNine;-inkscape-font-specification:'BenchNine, Bold';font-variant-ligatures:normal;font-variant-caps:normal;font-variant-numeric:normal;font-feature-settings:normal;text-align:start;writing-mode:lr-tb;text-anchor:start;stroke-width:0.26458332;fill:#481fb2;fill-opacity:1"
         id="path43" />
    </g>
  </g>
</svg>
