<?xml version="1.0" encoding="UTF-8" standalone="no"?>
<!-- Created with Inkscape (http://www.inkscape.org/) -->

<svg
   xmlns:dc="http://purl.org/dc/elements/1.1/"
   xmlns:cc="http://creativecommons.org/ns#"
   xmlns:rdf="http://www.w3.org/1999/02/22-rdf-syntax-ns#"
   xmlns:svg="http://www.w3.org/2000/svg"
   xmlns="http://www.w3.org/2000/svg"
   xmlns:sodipodi="http://sodipodi.sourceforge.net/DTD/sodipodi-0.dtd"
   xmlns:inkscape="http://www.inkscape.org/namespaces/inkscape"
   width="370"
   height="94"
   viewBox="0 0 97.895835 24.870815"
   version="1.1"
   id="svg8"
   sodipodi:docname="logo_mobile.svg"
   inkscape:version="0.92.3 (2405546, 2018-03-11)">
  <defs
     id="defs2" />
  <sodipodi:namedview
     id="base"
     pagecolor="#ffffff"
     bordercolor="#666666"
     borderopacity="1.0"
     inkscape:pageopacity="0.0"
     inkscape:pageshadow="2"
     inkscape:zoom="1.979899"
     inkscape:cx="147.04992"
     inkscape:cy="31.954423"
     inkscape:document-units="mm"
     inkscape:current-layer="text21"
     showgrid="false"
     inkscape:window-width="2498"
     inkscape:window-height="1057"
     inkscape:window-x="-8"
     inkscape:window-y="-8"
     inkscape:window-maximized="1"
     fit-margin-top="0"
     fit-margin-left="0"
     fit-margin-right="0"
     fit-margin-bottom="0"
     units="px" />
  <metadata
     id="metadata5">
    <rdf:RDF>
      <cc:Work
         rdf:about="">
        <dc:format>image/svg+xml</dc:format>
        <dc:type
           rdf:resource="http://purl.org/dc/dcmitype/StillImage" />
        <dc:title></dc:title>
      </cc:Work>
    </rdf:RDF>
  </metadata>
  <g
     inkscape:label="Layer 1"
     inkscape:groupmode="layer"
     id="layer1"
     transform="translate(-45.661885,-32.377113)">
    <g
       aria-label="Honey Waffle"
       style="font-style:normal;font-variant:normal;font-weight:bold;font-stretch:normal;font-size:25.39999962px;line-height:1.25;font-family:BenchNine;-inkscape-font-specification:'BenchNine, Bold';font-variant-ligatures:normal;font-variant-caps:normal;font-variant-numeric:normal;font-feature-settings:normal;text-align:start;letter-spacing:0px;word-spacing:0px;writing-mode:lr-tb;text-anchor:start;fill:#000000;fill-opacity:1;stroke:none;stroke-width:0.26458332"
       id="text21">
      <g
         aria-label="RORSCHACH 
TEST"
         style="font-style:normal;font-variant:normal;font-weight:bold;font-stretch:normal;font-size:14.6680975px;line-height:1.25;font-family:'Times New Roman';-inkscape-font-specification:'Times New Roman, Bold';font-variant-ligatures:normal;font-variant-caps:normal;font-variant-numeric:normal;font-feature-settings:normal;text-align:start;letter-spacing:0px;word-spacing:0px;writing-mode:lr-tb;text-anchor:start;fill:#fffff6;fill-opacity:1;stroke:none;stroke-width:0.10036898"
         id="text826">
        <path
           d="m 51.094173,39.006659 v 2.721619 q 0,0.787838 0.09311,0.99554 0.100271,0.200541 0.343784,0.322297 0.243513,0.121757 0.909594,0.121757 v 0.265 h -4.970537 v -0.265 q 0.673243,0 0.909594,-0.121757 0.243513,-0.128918 0.336621,-0.329459 0.10027,-0.20054 0.10027,-0.988378 V 35.42558 q 0,-0.787837 -0.10027,-0.988377 -0.09311,-0.207703 -0.336621,-0.32946 -0.243514,-0.121756 -0.909594,-0.121756 v -0.265 h 4.512159 q 1.76189,0 2.578376,0.243513 0.816486,0.243514 1.332161,0.902432 0.515676,0.651756 0.515676,1.532702 0,1.074323 -0.773513,1.776215 -0.494189,0.444053 -1.382296,0.66608 l 2.334863,3.28743 q 0.458378,0.637432 0.651756,0.795 0.293648,0.222027 0.680405,0.243513 v 0.265 h -3.058241 l -3.129863,-4.426213 z m 0,-4.762835 v 4.254322 h 0.408243 q 0.99554,0 1.489729,-0.179054 0.494189,-0.186216 0.773513,-0.658919 0.286486,-0.479864 0.286486,-1.246215 0,-1.110134 -0.522837,-1.640134 -0.515676,-0.53 -1.668783,-0.53 z"
           style="font-style:normal;font-variant:normal;font-weight:bold;font-stretch:normal;font-size:14.6680975px;font-family:'Times New Roman';-inkscape-font-specification:'Times New Roman, Bold';font-variant-ligatures:normal;font-variant-caps:normal;font-variant-numeric:normal;font-feature-settings:normal;text-align:start;writing-mode:lr-tb;text-anchor:start;fill:#fffff6;fill-opacity:1;stroke-width:0.10036898"
           id="path914" />
        <path
           d="m 63.463219,33.584906 q 2.320539,-0.08595 3.767294,1.353648 1.453918,1.439593 1.453918,3.602565 0,1.847836 -1.081485,3.251619 -1.432432,1.862161 -4.046619,1.862161 -2.62135,0 -4.053781,-1.776215 -1.131621,-1.403783 -1.131621,-3.330403 0,-2.162972 1.468242,-3.602565 1.475405,-1.446756 3.624052,-1.36081 z m 0.08595,0.458378 q -1.332161,0 -2.026891,1.36081 -0.56581,1.117296 -0.56581,3.208646 0,2.485269 0.873783,3.674187 0.608783,0.83081 1.704593,0.83081 0.737703,0 1.231891,-0.358108 0.63027,-0.458378 0.981216,-1.46108 0.350946,-1.009864 0.350946,-2.628512 0,-1.92662 -0.358108,-2.879187 -0.358108,-0.959729 -0.916756,-1.353647 -0.551486,-0.393919 -1.274864,-0.393919 z"
           style="text-align:start;text-anchor:start;fill:#fffff6;fill-opacity:1"
           id="path916" />
        <path
           d="m 73.096321,39.006659 v 2.721619 q 0,0.787838 0.09311,0.99554 0.10027,0.200541 0.343784,0.322297 0.243513,0.121757 0.909593,0.121757 v 0.265 H 69.47227 v -0.265 q 0.673242,0 0.909593,-0.121757 0.243514,-0.128918 0.336622,-0.329459 0.10027,-0.20054 0.10027,-0.988378 V 35.42558 q 0,-0.787837 -0.10027,-0.988377 -0.09311,-0.207703 -0.336622,-0.32946 -0.243513,-0.121756 -0.909593,-0.121756 v -0.265 h 4.512158 q 1.761891,0 2.578377,0.243513 0.816486,0.243514 1.332161,0.902432 0.515675,0.651756 0.515675,1.532702 0,1.074323 -0.773513,1.776215 -0.494188,0.444053 -1.382296,0.66608 l 2.334863,3.28743 q 0.458378,0.637432 0.651757,0.795 0.293648,0.222027 0.680405,0.243513 v 0.265 h -3.058241 l -3.129863,-4.426213 z m 0,-4.762835 v 4.254322 h 0.408243 q 0.99554,0 1.489729,-0.179054 0.494188,-0.186216 0.773513,-0.658919 0.286486,-0.479864 0.286486,-1.246215 0,-1.110134 -0.522838,-1.640134 -0.515675,-0.53 -1.668782,-0.53 z"
           style="text-align:start;text-anchor:start;fill:#fffff6;fill-opacity:1"
           id="path918" />
        <path
           d="m 86.690093,33.49896 0.07878,3.237295 h -0.293648 q -0.207703,-1.217567 -1.024189,-1.955269 -0.809323,-0.744864 -1.754728,-0.744864 -0.73054,0 -1.16027,0.393918 -0.422567,0.386757 -0.422567,0.89527 0,0.322297 0.150405,0.572973 0.207703,0.336621 0.666081,0.66608 0.336621,0.236351 1.554188,0.837973 1.704593,0.837972 2.299052,1.582836 0.587297,0.744865 0.587297,1.704594 0,1.217566 -0.952567,2.098512 -0.945404,0.873783 -2.406484,0.873783 -0.458378,0 -0.866621,-0.09311 -0.408243,-0.09311 -1.024189,-0.350946 -0.343783,-0.143243 -0.56581,-0.143243 -0.186216,0 -0.393919,0.143243 -0.207702,0.143243 -0.336621,0.436892 h -0.265 v -3.667025 h 0.265 q 0.315135,1.547026 1.210404,2.363512 0.902432,0.809324 1.940945,0.809324 0.802162,0 1.274864,-0.436892 0.479864,-0.436891 0.479864,-1.017026 0,-0.343784 -0.186216,-0.666081 -0.179054,-0.322297 -0.551486,-0.608783 -0.372432,-0.293648 -1.317837,-0.759189 -1.324999,-0.651756 -1.905133,-1.110134 -0.580135,-0.458378 -0.89527,-1.024188 -0.307973,-0.565811 -0.307973,-1.246216 0,-1.160269 0.852297,-1.976755 0.852297,-0.816486 2.148647,-0.816486 0.472702,0 0.916756,0.114595 0.336621,0.08595 0.816486,0.322297 0.487027,0.229189 0.680405,0.229189 0.186216,0 0.293648,-0.114595 0.107433,-0.114594 0.200541,-0.551486 z"
           style="text-align:start;text-anchor:start;fill:#fffff6;fill-opacity:1"
           id="path920" />
        <path
           d="m 97.755627,33.49896 v 3.366214 h -0.279324 q -0.315135,-1.317837 -1.174594,-2.019728 -0.859459,-0.701892 -1.948107,-0.701892 -0.909594,0 -1.668782,0.522838 -0.759189,0.522837 -1.110135,1.367972 -0.451216,1.081485 -0.451216,2.406484 0,1.303513 0.32946,2.377837 0.329459,1.067161 1.03135,1.618647 0.701892,0.544324 1.819188,0.544324 0.916756,0 1.675945,-0.401081 0.766351,-0.401081 1.611485,-1.382296 v 0.837972 q -0.816486,0.852297 -1.704593,1.239053 -0.880945,0.379595 -2.062701,0.379595 -1.554188,0 -2.764593,-0.623108 -1.203242,-0.623108 -1.862161,-1.790539 -0.651756,-1.167432 -0.651756,-2.485269 0,-1.389458 0.723378,-2.635673 0.73054,-1.246216 1.962431,-1.933783 1.239053,-0.687567 2.628511,-0.687567 1.024189,0 2.162972,0.444054 0.658918,0.257837 0.837972,0.257837 0.229189,0 0.393919,-0.164729 0.171892,-0.171892 0.222027,-0.537162 z"
           style="text-align:start;text-anchor:start;fill:#fffff6;fill-opacity:1"
           id="path922" />
        <path
           d="m 102.57576,38.763145 v 3.008106 q 0,0.744865 0.0788,0.931081 0.0859,0.186216 0.3223,0.329459 0.24351,0.136081 0.65175,0.136081 h 0.3223 v 0.265 h -5.077968 v -0.265 h 0.322297 q 0.422567,0 0.680405,-0.150405 0.186216,-0.10027 0.286486,-0.343784 0.0788,-0.171892 0.0788,-0.902432 v -6.388644 q 0,-0.744864 -0.0788,-0.93108 -0.0788,-0.186216 -0.322297,-0.322297 -0.236351,-0.143243 -0.644594,-0.143243 h -0.322297 v -0.265 h 5.077968 v 0.265 h -0.3223 q -0.42256,0 -0.6804,0.150405 -0.18622,0.10027 -0.29365,0.343784 -0.0788,0.171891 -0.0788,0.902431 v 2.750269 h 3.43067 v -2.750269 q 0,-0.744864 -0.0788,-0.93108 -0.0788,-0.186216 -0.3223,-0.322297 -0.24351,-0.143243 -0.65176,-0.143243 h -0.31513 v -0.265 h 5.07081 v 0.265 h -0.31514 q -0.42973,0 -0.6804,0.150405 -0.18622,0.10027 -0.29365,0.343784 -0.0788,0.171891 -0.0788,0.902431 v 6.388644 q 0,0.744865 0.0788,0.931081 0.0788,0.186216 0.32229,0.329459 0.24352,0.136081 0.65176,0.136081 h 0.31514 v 0.265 h -5.07081 v -0.265 h 0.31513 q 0.42973,0 0.68041,-0.150405 0.18621,-0.10027 0.29365,-0.343784 0.0788,-0.171892 0.0788,-0.902432 v -3.008106 z"
           style="text-align:start;text-anchor:start;fill:#fffff6;fill-opacity:1"
           id="path924" />
        <path
           d="m 116.06926,40.668279 h -3.43067 l -0.40824,0.945405 q -0.20054,0.472702 -0.20054,0.780675 0,0.408243 0.32946,0.601621 0.19337,0.114595 0.95256,0.171892 v 0.265 h -3.23013 v -0.265 q 0.52284,-0.07878 0.85946,-0.429729 0.33662,-0.358108 0.83081,-1.468243 l 3.47365,-7.749453 h 0.13608 l 3.50229,7.964318 q 0.50135,1.131621 0.82365,1.425269 0.24351,0.222027 0.68757,0.257838 v 0.265 h -4.69838 v -0.265 h 0.19338 q 0.56581,0 0.795,-0.157567 0.15757,-0.114595 0.15757,-0.32946 0,-0.128918 -0.043,-0.264999 -0.0143,-0.06446 -0.21486,-0.537162 z m -0.24351,-0.529999 -1.44676,-3.344728 -1.48972,3.344728 z"
           style="text-align:start;text-anchor:start;fill:#fffff6;fill-opacity:1"
           id="path926" />
        <path
           d="m 130.35777,33.49896 v 3.366214 h -0.27933 q -0.31513,-1.317837 -1.17459,-2.019728 -0.85946,-0.701892 -1.94811,-0.701892 -0.90959,0 -1.66878,0.522838 -0.75919,0.522837 -1.11013,1.367972 -0.45122,1.081485 -0.45122,2.406484 0,1.303513 0.32946,2.377837 0.32946,1.067161 1.03135,1.618647 0.70189,0.544324 1.81919,0.544324 0.91676,0 1.67594,-0.401081 0.76635,-0.401081 1.61149,-1.382296 v 0.837972 q -0.81649,0.852297 -1.70459,1.239053 -0.88095,0.379595 -2.06271,0.379595 -1.55418,0 -2.76459,-0.623108 -1.20324,-0.623108 -1.86216,-1.790539 -0.65175,-1.167432 -0.65175,-2.485269 0,-1.389458 0.72337,-2.635673 0.73054,-1.246216 1.96243,-1.933783 1.23906,-0.687567 2.62852,-0.687567 1.02418,0 2.16297,0.444054 0.65892,0.257837 0.83797,0.257837 0.22919,0 0.39392,-0.164729 0.17189,-0.171892 0.22202,-0.537162 z"
           style="text-align:start;text-anchor:start;fill:#fffff6;fill-opacity:1"
           id="path928" />
        <path
           d="m 135.1779,38.763145 v 3.008106 q 0,0.744865 0.0788,0.931081 0.086,0.186216 0.3223,0.329459 0.24351,0.136081 0.65176,0.136081 h 0.32229 v 0.265 h -5.07797 v -0.265 h 0.3223 q 0.42257,0 0.68041,-0.150405 0.18621,-0.10027 0.28648,-0.343784 0.0788,-0.171892 0.0788,-0.902432 v -6.388644 q 0,-0.744864 -0.0788,-0.93108 -0.0788,-0.186216 -0.32229,-0.322297 -0.23636,-0.143243 -0.6446,-0.143243 h -0.3223 v -0.265 h 5.07797 v 0.265 h -0.32229 q -0.42257,0 -0.68041,0.150405 -0.18621,0.10027 -0.29365,0.343784 -0.0788,0.171891 -0.0788,0.902431 v 2.750269 h 3.43067 v -2.750269 q 0,-0.744864 -0.0788,-0.93108 -0.0788,-0.186216 -0.3223,-0.322297 -0.24351,-0.143243 -0.65175,-0.143243 h -0.31514 v -0.265 h 5.07081 v 0.265 h -0.31514 q -0.42973,0 -0.6804,0.150405 -0.18622,0.10027 -0.29365,0.343784 -0.0788,0.171891 -0.0788,0.902431 v 6.388644 q 0,0.744865 0.0788,0.931081 0.0788,0.186216 0.3223,0.329459 0.24351,0.136081 0.65175,0.136081 h 0.31514 v 0.265 h -5.07081 v -0.265 h 0.31514 q 0.42972,0 0.6804,-0.150405 0.18622,-0.10027 0.29365,-0.343784 0.0788,-0.171892 0.0788,-0.902432 v -3.008106 z"
           style="text-align:start;text-anchor:start;fill:#fffff6;fill-opacity:1"
           id="path930" />
        <path
           d="m 56.451467,46.3814 v 2.628512 H 56.193629 Q 55.96444,48.100318 55.685116,47.706399 55.405792,47.305319 54.918765,47.068968 54.646603,46.940049 53.966198,46.940049 H 53.24282 v 7.491616 q 0,0.744864 0.07878,0.93108 0.08595,0.186216 0.322297,0.32946 0.243514,0.136081 0.658919,0.136081 h 0.322297 v 0.264999 h -5.085132 v -0.264999 h 0.322297 q 0.422568,0 0.680405,-0.150406 0.186216,-0.10027 0.293649,-0.343783 0.07878,-0.171892 0.07878,-0.902432 v -7.491616 h -0.701891 q -0.981216,0 -1.425269,0.415405 -0.623108,0.580135 -0.787838,1.654458 H 47.72796 V 46.3814 Z"
           style="font-style:normal;font-variant:normal;font-weight:bold;font-stretch:normal;font-size:14.6680975px;font-family:'Times New Roman';-inkscape-font-specification:'Times New Roman, Bold';font-variant-ligatures:normal;font-variant-caps:normal;font-variant-numeric:normal;font-feature-settings:normal;text-align:start;writing-mode:lr-tb;text-anchor:start;fill:#fffff6;fill-opacity:1;stroke-width:0.10036898"
           id="path932" />
        <path
           d="m 60.992274,46.940049 v 3.95351 h 0.193378 q 0.923919,0 1.339324,-0.580134 0.415405,-0.580135 0.529999,-1.711756 h 0.272162 v 5.085132 h -0.272162 q -0.08595,-0.830811 -0.36527,-1.36081 -0.272162,-0.53 -0.637432,-0.709054 -0.36527,-0.186216 -1.059999,-0.186216 v 2.735944 q 0,0.802162 0.06446,0.981216 0.07162,0.179054 0.257838,0.293648 0.186216,0.114595 0.601621,0.114595 h 0.580135 q 1.36081,0 2.177296,-0.63027 0.823648,-0.63027 1.181756,-1.919458 h 0.264999 l -0.436891,3.086889 h -8.394048 v -0.264999 h 0.322297 q 0.422567,0 0.680405,-0.150406 0.186216,-0.10027 0.286486,-0.343783 0.07878,-0.171892 0.07878,-0.902432 v -6.388644 q 0,-0.658919 -0.03581,-0.809324 -0.07162,-0.250675 -0.265,-0.386756 Q 58.084438,46.6464 57.611736,46.6464 h -0.322297 v -0.265 h 8.129048 v 2.872025 H 65.146325 Q 64.938623,48.200588 64.559028,47.74221 64.186596,47.283832 63.499029,47.068968 63.097948,46.940049 61.994976,46.940049 Z"
           style="font-style:normal;font-variant:normal;font-weight:bold;font-stretch:normal;font-size:14.6680975px;font-family:'Times New Roman';-inkscape-font-specification:'Times New Roman, Bold';font-variant-ligatures:normal;font-variant-caps:normal;font-variant-numeric:normal;font-feature-settings:normal;text-align:start;writing-mode:lr-tb;text-anchor:start;fill:#fffff6;fill-opacity:1;stroke-width:0.10036898"
           id="path934" />
        <path
           d="m 73.683616,46.159374 0.07878,3.237295 h -0.293649 q -0.207702,-1.217567 -1.024188,-1.955269 -0.809324,-0.744865 -1.754729,-0.744865 -0.73054,0 -1.160269,0.393919 -0.422567,0.386756 -0.422567,0.89527 0,0.322297 0.150405,0.572972 0.207703,0.336622 0.666081,0.666081 0.336621,0.236351 1.554188,0.837972 1.704593,0.837973 2.299052,1.582837 0.587297,0.744864 0.587297,1.704593 0,1.217567 -0.952567,2.098512 -0.945405,0.873783 -2.406485,0.873783 -0.458378,0 -0.866621,-0.09311 -0.408243,-0.09311 -1.024188,-0.350945 -0.343784,-0.143244 -0.56581,-0.143244 -0.186217,0 -0.393919,0.143244 -0.207703,0.143243 -0.336621,0.436891 h -0.265 v -3.667024 h 0.265 q 0.315134,1.547026 1.210404,2.363512 0.902432,0.809323 1.940945,0.809323 0.802161,0 1.274864,-0.436891 0.479864,-0.436892 0.479864,-1.017027 0,-0.343783 -0.186216,-0.66608 -0.179054,-0.322297 -0.551486,-0.608783 -0.372432,-0.293649 -1.317837,-0.759189 -1.324999,-0.651756 -1.905134,-1.110134 -0.580134,-0.458378 -0.895269,-1.024189 -0.307973,-0.56581 -0.307973,-1.246215 0,-1.16027 0.852297,-1.976756 0.852296,-0.816485 2.148647,-0.816485 0.472702,0 0.916756,0.114594 0.336621,0.08595 0.816486,0.322297 0.487026,0.229189 0.680405,0.229189 0.186216,0 0.293648,-0.114594 0.107432,-0.114595 0.20054,-0.551486 z"
           style="font-style:normal;font-variant:normal;font-weight:bold;font-stretch:normal;font-size:14.6680975px;font-family:'Times New Roman';-inkscape-font-specification:'Times New Roman, Bold';font-variant-ligatures:normal;font-variant-caps:normal;font-variant-numeric:normal;font-feature-settings:normal;text-align:start;writing-mode:lr-tb;text-anchor:start;fill:#fffff6;fill-opacity:1;stroke-width:0.10036898"
           id="path936" />
        <path
           d="m 84.211988,46.3814 v 2.628512 H 83.95415 q -0.229189,-0.909594 -0.508513,-1.303513 -0.279324,-0.40108 -0.766351,-0.637431 -0.272162,-0.128919 -0.952567,-0.128919 h -0.723378 v 7.491616 q 0,0.744864 0.07878,0.93108 0.08595,0.186216 0.322297,0.32946 0.243513,0.136081 0.658919,0.136081 h 0.322297 v 0.264999 h -5.085132 v -0.264999 h 0.322297 q 0.422567,0 0.680405,-0.150406 0.186216,-0.10027 0.293649,-0.343783 0.07878,-0.171892 0.07878,-0.902432 v -7.491616 h -0.701891 q -0.981216,0 -1.425269,0.415405 -0.623108,0.580135 -0.787838,1.654458 H 75.48848 V 46.3814 Z"
           style="font-style:normal;font-variant:normal;font-weight:bold;font-stretch:normal;font-size:14.6680975px;font-family:'Times New Roman';-inkscape-font-specification:'Times New Roman, Bold';font-variant-ligatures:normal;font-variant-caps:normal;font-variant-numeric:normal;font-feature-settings:normal;text-align:start;writing-mode:lr-tb;text-anchor:start;fill:#fffff6;fill-opacity:1;stroke-width:0.10036898"
           id="path938" />
      </g>
    </g>
  </g>
</svg>
